<svg width="408" height="231" viewBox="0 0 408 231" fill="none" xmlns="http://www.w3.org/2000/svg">
  <!-- PH Logo Mark -->
  <g transform="translate(160, 15)">
    <!-- P letter -->
    <path d="M30 0H65C82 0 96 10 96 30C96 50 82 60 65 60H50V100H30V0ZM50 42H63C70 42 76 37 76 30C76 23 70 18 63 18H50V42Z" fill="#DDB395"/>
    <!-- H letter -->
    <path d="M110 0H130V42H168V0H188V100H168V58H130V100H110V0Z" fill="#DDB395"/>
  </g>

  <!-- "PlannerHub" text path -->
  <path d="M66.646 63.6156V50.699H122.5V63.6156C120.761 61.8396 118.61 60.0948 116.042 58.3865C113.469 56.6781 110.792 55.2198 108 54.0115C105.219 52.8031 102.651 52.1156 100.292 51.949V129.47H88.8752V51.949C86.5106 52.1156 83.9377 52.8031 81.146 54.0115C78.3647 55.2198 75.6877 56.6781 73.1043 58.3865C70.5314 60.0948 68.3804 61.8396 66.646 63.6156Z" fill="#DDB395"/>
  <path d="M141.8 129.47H130.383V50.699H170.321C173.206 50.699 175.581 51.3865 177.446 52.7615C179.305 54.1261 180.706 55.8396 181.654 57.9073C182.597 59.9802 183.071 62.0896 183.071 64.2406C183.071 67.3969 182.435 70.0896 181.175 72.324C179.925 74.5636 178.31 76.4594 176.342 78.0115C174.368 79.5531 172.264 80.8396 170.029 81.8656C167.805 82.8813 165.706 83.7719 163.737 84.5323C161.764 85.2979 160.144 86.0063 158.883 86.6573C157.633 87.3136 157.008 88.0323 157.008 88.824C157.008 89.6156 157.435 90.9229 158.3 92.7406C159.159 94.5479 160.342 96.6886 161.842 99.1573C163.342 101.616 165.008 104.199 166.842 106.907C168.685 109.605 170.592 112.272 172.55 114.907C174.519 117.532 176.409 119.907 178.217 122.032C180.034 124.157 181.68 125.855 183.154 127.116C184.623 128.366 185.758 128.991 186.55 128.991V129.47H173.55C172.019 129.47 170.847 129.34 170.029 129.074C169.222 128.814 168.451 128.261 167.717 127.428C166.977 126.584 165.93 125.272 164.571 123.491C163.248 121.756 161.826 119.798 160.3 117.616C158.784 115.439 157.29 113.194 155.821 110.886C154.347 108.569 153.008 106.334 151.8 104.178C150.592 102.027 149.633 100.074 148.925 98.324C148.217 96.5636 147.862 95.1781 147.862 94.1781C147.862 92.9177 148.435 91.7927 149.592 90.8031C150.743 89.8031 152.217 88.8031 154.008 87.8031C155.8 86.8031 157.717 85.6886 159.758 84.449C161.8 83.2146 163.717 81.7511 165.508 80.0531C167.3 78.3448 168.769 76.2563 169.925 73.7823C171.076 71.3136 171.654 68.3656 171.654 64.949C171.654 62.4906 171.217 60.2771 170.342 58.3031C169.477 56.3344 168.092 54.7719 166.175 53.6156C164.258 52.4646 161.748 51.8865 158.654 51.8865H141.8V129.47Z" fill="#DDB395"/>
  <path d="M192.057 129.47V50.699H203.474V129.47H192.057Z" fill="#DDB395"/>
  <path d="M227.734 129.47H210.568C212.193 124.11 213.713 119.11 215.13 114.47C216.547 109.819 217.891 105.366 219.172 101.116C220.463 96.8656 221.755 92.6156 223.047 88.3656C224.338 84.1051 225.677 79.6989 227.068 75.1572C228.453 70.6156 229.932 65.7197 231.505 60.4697C232.088 58.6364 232.823 56.9229 233.713 55.3239C234.615 53.7145 235.76 52.4072 237.151 51.4072C238.536 50.4072 240.177 49.9072 242.068 49.9072C244.01 49.9072 245.661 50.4072 247.026 51.4072C248.401 52.4072 249.547 53.7145 250.463 55.3239C251.38 56.9229 252.099 58.6364 252.63 60.4697C254.198 65.7197 255.677 70.6156 257.068 75.1572C258.469 79.6989 259.807 84.1051 261.088 88.3656C262.38 92.6156 263.677 96.8656 264.984 101.116C266.302 105.366 267.656 109.819 269.047 114.47C270.432 119.11 271.943 124.11 273.568 129.47H261.526C259.901 124.011 258.385 118.965 256.984 114.324C255.594 109.673 254.276 105.188 253.026 100.866H226.713C226.599 105.23 226.573 109.355 226.63 113.241C226.682 117.131 226.818 120.506 227.026 123.366C227.234 126.23 227.469 128.261 227.734 129.47ZM226.797 99.6989H252.63C251.422 95.5479 250.182 91.4385 248.922 87.3656C247.656 83.2979 246.349 79.0635 245.005 74.6572C243.672 70.2406 242.193 65.5114 240.568 60.4697C240.302 59.5843 239.932 58.876 239.463 58.3447C238.99 57.8187 238.307 57.5531 237.422 57.5531C236.005 57.5531 234.74 58.3656 233.63 59.9906C232.531 61.6156 231.588 63.8395 230.797 66.6572C230.016 69.4645 229.349 72.6676 228.797 76.2614C228.24 79.8604 227.802 83.6676 227.484 87.6781C227.177 91.6937 226.948 95.6989 226.797 99.6989Z" fill="#DDB395"/>

  <!-- Bottom decorative line -->
  <path d="M129.958 222.516H398.328V223.766H129.958V222.516Z" fill="#EFE3DD"/>
</svg>
